<?xml version="1.0" encoding="UTF-8"?>
<svg width="18px" height="18px" viewBox="0 0 18 18" version="1.1" xmlns="http://www.w3.org/2000/svg" xmlns:xlink="http://www.w3.org/1999/xlink">
    <!-- Generator: Sketch 53.1 (72631) - https://sketchapp.com -->
    <title>Change icon</title>
    <desc>Created with Sketch.</desc>
    <g id="TR" stroke="none" stroke-width="1" fill="none" fill-rule="evenodd">
        <g id="06-02-End-User-Bulk-SMS-(Message-Details)" transform="translate(-373.000000, -224.000000)" fill="#E60000">
            <g id="Sidebar" transform="translate(90.000000, 182.000000)">
                <g id="Content" transform="translate(32.000000, 32.000000)">
                    <g id="Group-2" transform="translate(251.000000, 8.000000)">
                        <g id="Change-icon" transform="translate(0.000000, 2.000000)">
                            <path d="M17.2587837,1.93290787 L16.0657439,0.739924634 C15.0799424,-0.246641545 13.4740698,-0.246641545 12.4874985,0.739924634 L1.75421849,11.4743605 C1.68676464,11.5418111 1.63719058,11.6255139 1.61118438,11.7173509 L0.0215600189,17.2832468 C-0.0345155957,17.4799089 0.0207473771,17.6903807 0.164594134,17.8350307 C0.27186868,17.9423002 0.414898634,18 0.562821916,18 C0.614834321,18 0.666846727,17.9926862 0.717234681,17.978058 L6.28339427,16.3876981 C6.37522945,16.3616931 6.45974961,16.3121214 6.52720762,16.2446707 L17.2588232,5.51189918 C17.7375038,5.03405264 18,4.39855357 18,3.72242433 C18,3.04629509 17.7375038,2.41079602 17.2588232,1.93294948 L17.2587837,1.93290787 Z M5.83457711,15.2617035 L1.5,16.5 L2.73892511,12.1656684 L11.1534974,3.75 L14.25,6.84690603 L5.83457711,15.2617035 Z M16.4545167,4.78437353 L15.2394906,6 L12,2.75890885 L13.2150261,1.54328238 C13.7728737,0.985159238 14.6816642,0.985985993 15.2403381,1.54328238 L16.4553642,2.75890885 C16.7260034,3.02885492 16.875,3.38991362 16.875,3.77164119 C16.8741715,4.15338996 16.7243634,4.51277395 16.4545379,4.78437353 L16.4545167,4.78437353 Z" id="Fill-1"></path>
                        </g>
                    </g>
                </g>
            </g>
        </g>
    </g>
</svg>