<?xml version="1.0" encoding="UTF-8"?>
<svg width="24px" height="24px" viewBox="0 0 24 24" version="1.1" xmlns="http://www.w3.org/2000/svg" xmlns:xlink="http://www.w3.org/1999/xlink">
    <!-- Generator: Sketch 53.1 (72631) - https://sketchapp.com -->
    <title>Search Icon</title>
    <desc>Created with Sketch.</desc>
    <g id="TR" stroke="none" stroke-width="1" fill="none" fill-rule="evenodd">
        <g id="09-01-Sales-Agent-Dashboard" transform="translate(-122.000000, -293.000000)" fill="#999999">
            <g id="Content" transform="translate(90.000000, 182.000000)">
                <g id="Sidebar" transform="translate(0.000000, 34.000000)">
                    <g id="Search" transform="translate(0.000000, 54.000000)">
                        <g id="Search-Icon" transform="translate(32.000000, 23.000000)">
                            <path d="M8.7798008,17.5657329 C10.9567803,17.5657329 13.0076255,16.7710443 14.6185704,15.3314108 L23.2888717,24 L24,23.2890121 L15.3284912,14.6192155 C18.4018456,11.1752027 18.2956066,5.87637322 14.9912071,2.57271679 C13.3319278,0.913765109 11.1265696,0 8.77989137,0 C6.4330924,0 4.22782473,0.913765109 2.5685756,2.57271679 C-0.856191868,5.99680802 -0.856191868,11.569106 2.5685756,14.9928954 C4.2266775,16.6518471 6.43321316,17.5656122 8.77989137,17.5656122 L8.7798008,17.5657329 Z M3.27946241,3.28500262 C4.74887605,1.81587913 6.70181468,1.00703417 8.7798008,1.00703417 C10.8577265,1.00703417 12.8107859,1.81587913 14.2801392,3.28500262 C17.3121332,6.31639792 17.3121332,11.2509046 14.2801392,14.2822999 C12.8107255,15.7514234 10.8577869,16.5602683 8.7798008,16.5602683 C6.70187506,16.5602683 4.74881567,15.7514234 3.27946241,14.2822999 C0.246260828,11.2509046 0.246260828,6.31639792 3.27946241,3.28500262 Z" id="Fill-1"></path>
                        </g>
                    </g>
                </g>
            </g>
        </g>
    </g>
</svg>