<?xml version="1.0" encoding="UTF-8"?>
<svg width="24px" height="24px" viewBox="0 0 24 24" version="1.1" xmlns="http://www.w3.org/2000/svg" xmlns:xlink="http://www.w3.org/1999/xlink">
    <!-- Generator: Sketch 53.1 (72631) - https://sketchapp.com -->
    <title>Fill 1</title>
    <desc>Created with Sketch.</desc>
    <g id="TR" stroke="none" stroke-width="1" fill="none" fill-rule="evenodd">
        <g id="06-03-End-User-Bulk-SMS-(Preview)" transform="translate(-564.000000, -861.000000)" fill="#E60000">
            <g id="Content" transform="translate(561.000000, 240.000000)">
                <path d="M15,645 C21.6275455,645 27,639.627545 27,633 C27,626.372455 21.6275455,621 15,621 C8.37245455,621 3,626.372455 3,633 C3,639.627545 8.37245455,645 15,645 Z M15,643 C20.5230556,643 25,638.523056 25,633 C25,627.476944 20.5230556,623 15,623 C9.47694444,623 5,627.476944 5,633 C5,638.523056 9.47694444,643 15,643 Z M17,627.502925 C17,627.917975 16.8539514,628.271475 16.5608632,628.5625 C16.2687711,628.8545 15.9166524,629 15.5045071,629 C15.0913631,629 14.7382456,628.854492 14.4421586,628.5625 C14.1470704,628.271475 14,627.917975 14,627.502925 C14,627.08985 14.1470499,626.73535 14.4421586,626.4414 C14.7372469,626.146475 15.0913887,626 15.5045071,626 C15.9166524,626 16.2687711,626.14746 16.5608632,626.4414 C16.853954,626.73535 17,627.08985 17,627.502925 Z M17,638.3086 C16.5824151,638.534451 16.2475776,638.704899 15.9983368,638.823153 C15.7491203,638.941405 15.4599425,639 15.1298536,639 C14.6228488,639 14.2290313,638.831676 13.9474512,638.49502 C13.6668452,638.158366 13.526043,637.730104 13.526043,637.21236 C13.526043,637.011011 13.536507,636.805398 13.557435,636.594471 C13.5793126,636.3846 13.6126064,636.147036 13.6592183,635.881755 L14.1823927,633.360099 C14.2290045,633.119333 14.2689561,632.890273 14.300348,632.672965 C14.3326896,632.458831 14.3479095,632.260684 14.3479095,632.082757 C14.3479095,631.759958 14.2993958,631.535177 14.2014187,631.408387 C14.1043914,631.281612 13.9179393,631.217691 13.6420819,631.217691 C13.5070048,631.217691 13.368124,631.247522 13.2263964,631.305048 C13.0837094,631.36151 13,630.691413 13,630.691413 C13.3424352,630.500718 13.6706246,630.338778 13.9835942,630.203478 C14.2965637,630.068182 14.5923896,630 14.8729955,630 C15.3762015,630 15.7643207,630.166194 16.0373045,630.497508 C16.309363,630.828816 16.446342,631.258169 16.446342,631.788704 C16.446342,631.897369 16.4368302,632.091266 16.4178041,632.367184 C16.398778,632.643101 16.3635823,632.896655 16.3131668,633.127845 L15.7918918,635.639901 C15.7490862,635.84125 15.7110365,636.072418 15.6777427,636.331317 C15.6434992,636.589128 15.626375,636.786225 15.626375,636.918306 C15.626375,637.251769 15.6815464,637.479741 15.7909397,637.601186 C15.9012826,637.72157 16.0905888,637.782293 16.3607234,637.782293 C16.4872384,637.782293 16.6318322,637.751398 16.7916288,637.691739 C16.9514376,637.631014 16.9999513,638.308565 16.9999513,638.308565 L17,638.3086 Z" id="Fill-1"></path>
            </g>
        </g>
    </g>
</svg>