<?xml version="1.0" encoding="UTF-8"?>
<svg width="28px" height="21px" viewBox="0 0 28 21" version="1.1" xmlns="http://www.w3.org/2000/svg" xmlns:xlink="http://www.w3.org/1999/xlink">
    <!-- Generator: Sketch 53.1 (72631) - https://sketchapp.com -->
    <title>Fill 1</title>
    <desc>Created with Sketch.</desc>
    <g id="TR" stroke="none" stroke-width="1" fill="none" fill-rule="evenodd">
        <g id="04-02-End-User-Group-Detail" transform="translate(-849.000000, -483.000000)" fill="#333333">
            <g id="Content" transform="translate(90.000000, 182.000000)">
                <g id="Action" transform="translate(470.000000, 261.000000)">
                    <g id="Button" transform="translate(252.000000, 25.000000)">
                        <g id="Group-2" transform="translate(37.000000, 14.000000)">
                            <path d="M13.9998444,1 C16.14844,1 18.3018889,1.83026364 19.9402,3.50568182 C21.2113689,4.80574091 21.9684889,6.4327 22.2540889,8.11931818 C25.5073778,8.65997273 28,11.5260909 28,15 C28,18.8579545 24.9277778,22 21.1555556,22 L5.91111111,22 C2.64693333,22 0,19.2929727 0,15.9545455 C0,12.7043182 2.5144,10.0767727 5.65848889,9.939 C5.56734267,7.62349545 6.34511111,5.26936364 8.0696,3.50568182 C9.70657333,1.83150455 11.8514667,1 14,1 L13.9998444,1 Z M13.9998444,2.27272727 C12.1672133,2.27272727 10.3442889,2.97870909 8.94428889,4.41052727 C7.32554667,6.06605909 6.64984444,8.31334545 6.90262222,10.4658455 C6.92449644,10.6473077 6.86980933,10.8312455 6.75071289,10.9679682 C6.63161644,11.1046877 6.46026267,11.1829891 6.28040622,11.1817482 L5.91096178,11.1817482 C3.31511289,11.1817482 1.24429511,13.29963 1.24429511,15.9544755 C1.24429511,18.6093209 3.31511289,20.7272027 5.91096178,20.7272027 L21.1554062,20.7272027 C24.2555662,20.7272027 26.7554062,18.1705482 26.7554062,14.99993 C26.7554062,12.0057755 24.5253618,9.55743 21.6706062,9.29238455 C21.3777231,9.26628409 21.1419662,9.03386182 21.1067173,8.73556636 C20.9268578,7.15458455 20.2535884,5.62584818 19.0650507,4.41020273 C17.666264,2.97962545 15.8322951,2.27240273 13.9998507,2.27240273 L13.9998444,2.27272727 Z M13.9998444,8.63636364 C14.1663387,8.64009273 14.3291867,8.71218 14.4179156,8.79545455 L17.8401378,11.9772727 C18.0953453,12.2047218 18.1087138,12.6335227 17.8887489,12.8821182 C17.668784,13.1307136 17.2458689,13.146855 17.0040111,12.9218909 L14.6220822,10.7045455 L14.6220822,17.5454545 C14.6220822,17.8972045 14.343784,18.1818182 13.99986,18.1818182 C13.655936,18.1818182 13.3776378,17.897195 13.3776378,17.5454545 L13.3776378,10.7045455 L10.9957089,12.9218909 C10.7538698,13.146855 10.3418778,13.1182695 10.1109711,12.8821182 C9.87156178,12.6372677 9.91652667,12.2010182 10.1595822,11.9772727 L13.5818044,8.79545455 C13.719132,8.66743727 13.8345822,8.63636364 13.9998756,8.63636364 L13.9998444,8.63636364 Z" id="Fill-1"></path>
                        </g>
                    </g>
                </g>
            </g>
        </g>
    </g>
</svg>