<?xml version="1.0" encoding="UTF-8"?>
<svg width="25px" height="28px" viewBox="0 0 25 28" version="1.1" xmlns="http://www.w3.org/2000/svg" xmlns:xlink="http://www.w3.org/1999/xlink">
    <!-- Generator: Sketch 53.1 (72631) - https://sketchapp.com -->
    <title>icon</title>
    <desc>Created with Sketch.</desc>
    <g id="TR" stroke="none" stroke-width="1" fill="none" fill-rule="evenodd">
        <g id="08-01-Sales-Agent-LP-(Anonymous)" transform="translate(-1235.000000, -21.000000)" fill="#333333">
            <g id="Header">
                <g id="Login" transform="translate(1235.000000, 21.000000)">
                    <g id="icon">
                        <path d="M12.5298611,1.5017561 C13.9295833,1.5017561 15.2723611,2.0486439 16.2625,3.02232683 C17.2512847,3.9947122 17.8073611,5.31518537 17.8073611,6.69169268 C17.8073611,8.0682 17.25125,9.38870732 16.2625,10.3610585 C15.2723611,11.3347756 13.9295833,11.8816293 12.5298611,11.8816293 C11.1301389,11.8816293 9.78871528,11.3347415 8.79861111,10.3610585 C7.80847222,9.38867317 7.25239583,8.0682 7.25239583,6.69169268 C7.25239583,5.31518537 7.80850694,3.99467805 8.79861111,3.02232683 C9.78875,2.04860976 11.1301389,1.5017561 12.5298611,1.5017561 L12.5298611,1.5017561 Z M12.5298611,0.337297561 C10.8181597,0.337297561 9.17701389,1.00554146 7.965625,2.19666829 C6.75576389,3.38646341 6.07489583,5.00172195 6.07489583,6.68520488 C6.07489583,8.3686878 6.75576389,9.98380976 7.965625,11.1737415 C9.17684028,12.3648683 10.8179861,13.0331122 12.5298611,13.0331122 C14.2415625,13.0331122 15.8840972,12.3648683 17.0940972,11.1737415 C18.3053125,9.98394634 18.9848264,8.3686878 18.9848264,6.68520488 C18.9848264,5.00056098 18.3053125,3.38393659 17.0954514,2.19154634 C15.8855903,0.999087805 14.2430903,0.328180488 12.5301736,0.32415122 L12.5298611,0.337297561 Z" id="Fill-1"></path>
                        <path d="M24.3694444,27.6759522 C24.0439236,27.6759522 23.7807986,27.4171868 23.7807986,27.0970683 C23.6845,23.1996049 21.514375,19.6395073 18.0665625,17.7174098 C14.6173958,15.7953463 10.3964236,15.7953463 6.94746528,17.7174098 C3.49965278,19.6394732 1.32940972,23.1996049 1.23322917,27.0970683 C1.23322917,27.4185254 0.967388889,27.6786153 0.640520833,27.6786153 C0.313652778,27.6786153 0.0491666667,27.4185151 0.0491666667,27.0970683 C0.0491666667,22.7195073 2.42274306,18.6752146 6.27763889,16.4864341 C10.1325,14.2989512 14.8821528,14.2989512 18.735625,16.4864341 C22.5904861,18.6752829 24.9651389,22.7195073 24.9651389,27.0970683 C24.9651389,27.2517922 24.9027465,27.3998507 24.7901701,27.5078829 C24.6789514,27.6172571 24.5270417,27.6772802 24.3697187,27.6759485 L24.3694444,27.6759522 Z" id="Fill-2"></path>
                    </g>
                </g>
            </g>
        </g>
    </g>
</svg>