<?xml version="1.0" encoding="UTF-8"?>
<svg width="144px" height="48px" viewBox="0 0 144 48" version="1.1" xmlns="http://www.w3.org/2000/svg" xmlns:xlink="http://www.w3.org/1999/xlink">
    <!-- Generator: Sketch 53.1 (72631) - https://sketchapp.com -->
    <title>VF_Business_Logo_Horiz_RGB_RED</title>
    <desc>Created with Sketch.</desc>
    <g id="TR" stroke="none" stroke-width="1" fill="none" fill-rule="evenodd">
        <g id="08-01-Sales-Agent-LP-(Anonymous)" transform="translate(-90.000000, -11.000000)">
            <g id="Header">
                <g id="VF_Business_Logo_Horiz_RGB_RED" transform="translate(90.000000, 11.000000)">
                    <path d="M48.0300119,24.0177143 C48.0300119,37.2408571 37.2891292,47.9604286 24.0396978,47.9604286 C10.7901233,47.9604286 0.0493836978,37.2408571 0.0493836978,24.0177143 C0.0493836978,10.7944286 10.7901233,0.075 24.0396978,0.075 C37.2891292,0.075 48.0300119,10.7944286 48.0300119,24.0177143" id="Fill-1" fill="#D8242A"></path>
                    <path d="M24.2297893,37.3685714 C17.6382823,37.3904286 10.7806759,31.7757143 10.7506163,22.7604286 C10.7308628,16.7982857 13.9536859,11.0594286 18.0735746,7.65471429 C22.091833,4.33385714 27.5967555,2.20285714 32.5895189,2.18628571 C33.2322227,2.18414286 33.9042704,2.23757143 34.3158012,2.37642857 C29.9504254,3.28 26.4761034,7.33471429 26.4914195,11.9347143 C26.491992,12.0867143 26.5055905,12.2492857 26.5204771,12.3248571 C33.8255427,14.1005714 37.1416938,18.4994286 37.1620199,24.5861429 C37.1822028,30.6727143 32.3673638,37.3415714 24.2297893,37.3685714" id="Fill-2" fill="#FFFFFE"></path>
                    <polyline id="Fill-3" fill="#D8242A" points="61.2270537 21.4928571 56.5994433 10.4721429 59.6235865 10.4721429 62.510171 17.7887143 65.305002 10.4721429 68.1917296 10.4721429 63.7015348 21.4928571 61.2270537 21.4928571"></polyline>
                    <path d="M76.2455666,15.9254286 C76.2455666,15.4665714 76.1916024,15.0308571 76.0851054,14.6178571 C75.9781789,14.2047143 75.8177177,13.8492857 75.6038648,13.5508571 C75.3898688,13.2525714 75.1303539,13.0154286 74.8248907,12.8397143 C74.5194274,12.6641429 74.1605726,12.5755714 73.7481829,12.5755714 C73.3360795,12.5755714 72.9769384,12.6641429 72.671332,12.8397143 C72.3658688,13.0154286 72.1062107,13.2525714 71.8926441,13.5508571 C71.6786481,13.8492857 71.5181869,14.2047143 71.4115467,14.6178571 C71.304334,15.0308571 71.2510855,15.4665714 71.2510855,15.9254286 C71.2510855,16.3997143 71.304334,16.8395714 71.4115467,17.2448571 C71.5181869,17.6497143 71.6750696,18.0057143 71.8810497,18.3115714 C72.087173,18.6172857 72.346831,18.8585714 72.6600239,19.0342857 C72.9730736,19.2098571 73.3360795,19.2978571 73.7481829,19.2978571 C74.1605726,19.2978571 74.5194274,19.2098571 74.8248907,19.0342857 C75.1303539,18.8585714 75.3898688,18.6172857 75.6038648,18.3115714 C75.8177177,18.0057143 75.9781789,17.6497143 76.0851054,17.2448571 C76.1916024,16.8395714 76.2455666,16.3997143 76.2455666,15.9254286 Z M79.0403976,15.9367143 C79.0403976,16.6535714 78.9294632,17.3584286 78.708167,18.0517143 C78.4865845,18.7457143 78.1583618,19.3664286 77.7230696,19.9154286 C77.2877773,20.464 76.7381153,20.9062857 76.0737972,21.2414286 C75.4090497,21.5765714 74.6339404,21.7442857 73.7481829,21.7442857 C72.8622823,21.7442857 72.087173,21.5765714 71.4228549,21.2414286 C70.7585368,20.9062857 70.2088748,20.464 69.7734394,19.9154286 C69.3381471,19.3664286 69.0093519,18.7457143 68.7883419,18.0517143 C68.5666163,17.3584286 68.4561113,16.6535714 68.4561113,15.9367143 C68.4561113,15.2204286 68.5666163,14.5191429 68.7883419,13.8332857 C69.0093519,13.1474286 69.3381471,12.534 69.7734394,11.9925714 C70.2088748,11.4515714 70.7585368,11.0171429 71.4228549,10.6894286 C72.087173,10.3618571 72.8622823,10.1978571 73.7481829,10.1978571 C74.6339404,10.1978571 75.405328,10.3618571 76.0622028,10.6894286 C76.7187913,11.0171429 77.2684533,11.4515714 77.7117614,11.9925714 C78.1546402,12.534 78.4865845,13.1474286 78.708167,13.8332857 C78.9294632,14.5191429 79.0403976,15.2204286 79.0403976,15.9367143 L79.0403976,15.9367143 Z" id="Fill-4" fill="#D8242A"></path>
                    <path d="M87.5730417,12.8968571 C87.0263857,12.6828571 86.5172326,12.5755714 86.0464414,12.5755714 C85.5600477,12.5755714 85.1422187,12.6677143 84.7928111,12.8512857 C84.4435467,13.0347143 84.1546879,13.2828571 83.9268072,13.5967143 C83.6989264,13.9104286 83.5277296,14.2617143 83.4140755,14.6522857 C83.299992,15.0421429 83.243165,15.4434286 83.243165,15.8564286 C83.243165,16.3152857 83.2926918,16.7551429 83.3914592,17.176 C83.4902266,17.5968571 83.6420994,17.9634286 83.8470775,18.2772857 C84.0521988,18.5908571 84.3107117,18.8431429 84.6221869,19.0342857 C84.9335189,19.2252857 85.3019642,19.3207143 85.7270934,19.3207143 C86.076501,19.3207143 86.4337813,19.2252857 86.7983618,19.0342857 C87.1627992,18.8431429 87.421169,18.6172857 87.5730417,18.3572857 L87.5730417,12.8968571 Z M87.8032127,21.4928571 L87.687841,20.647 C87.4286123,20.9365714 87.0859324,21.1921429 86.6600875,21.4125714 C86.23367,21.6337143 85.7311014,21.7442857 85.1528111,21.7442857 C84.3915865,21.7442857 83.7213996,21.5844286 83.1431093,21.264 C82.5645328,20.9442857 82.0772803,20.5174286 81.6813519,19.9837143 C81.2855666,19.4505714 80.984827,18.833 80.7794195,18.1317143 C80.5738688,17.4308571 80.4712366,16.6992857 80.4712366,15.9367143 C80.4712366,15.2204286 80.5774473,14.5191429 80.7907276,13.8332857 C81.0038648,13.1474286 81.3272207,12.534 81.7610815,11.9925714 C82.1950855,11.4515714 82.7395944,11.0171429 83.3943221,10.6894286 C84.0486203,10.3618571 84.8174314,10.1978571 85.7007555,10.1978571 C86.279332,10.1978571 86.902998,10.3035714 87.5730417,10.5148571 L87.5730417,6.24228571 L90.4141074,6.24228571 L90.4141074,21.4928571 L87.8032127,21.4928571 L87.8032127,21.4928571 Z" id="Fill-5" fill="#D8242A"></path>
                    <path d="M98.411833,16.3254286 C98.1040795,16.3408571 97.789169,16.3675714 97.4662425,16.4057143 C97.1434592,16.4437143 96.835992,16.4932857 96.543841,16.5542857 C95.9289066,16.6761429 95.5022028,16.8855714 95.2635865,17.1831429 C95.0253996,17.4802857 94.9063062,17.8041429 94.9063062,18.1545714 C94.9063062,18.5204286 95.0407157,18.814 95.3098211,19.0351429 C95.5790696,19.2562857 95.9596819,19.3664286 96.4515149,19.3664286 C96.8201034,19.3664286 97.17767,19.2904286 97.523499,19.138 C97.8694712,18.9858571 98.1654871,18.795 98.411833,18.5661429 L98.411833,16.3254286 Z M98.6398569,21.4824286 L98.5260596,20.6595714 C98.2194513,20.998 97.8283897,21.264 97.3534473,21.456 C96.8782187,21.648 96.3574712,21.7442857 95.7902028,21.7442857 C95.3149742,21.7442857 94.8583539,21.6642857 94.4219165,21.5041429 C93.9850497,21.3442857 93.5982823,21.1154286 93.2608986,20.8181429 C92.9238012,20.521 92.6515467,20.1551429 92.4447078,19.721 C92.2377256,19.2865714 92.1343777,18.795 92.1343777,18.2461429 C92.1343777,17.6972857 92.2413042,17.2134286 92.4563022,16.7942857 C92.6710139,16.3752857 92.9618767,16.0208571 93.3300358,15.7311429 C93.6980517,15.4415714 94.1193161,15.205 94.5946879,15.0222857 C95.0699165,14.8394286 95.5679046,14.7021429 96.0890815,14.6107143 C96.4570974,14.5345714 96.8594672,14.4775714 97.2966203,14.4392857 C97.7333439,14.4014286 98.0972087,14.367 98.3887873,14.336 L98.3887873,14.1761429 C98.3887873,13.5667143 98.231332,13.1325714 97.9165646,12.8727143 C97.6020835,12.6138571 97.1685089,12.484 96.6159841,12.484 C96.2930577,12.484 95.9860199,12.5227143 95.6948708,12.5987143 C95.403006,12.6747143 95.1419165,12.7698571 94.9116024,12.8842857 C94.6812883,12.9987143 94.4778847,13.1128571 94.3016779,13.2272857 C94.1246123,13.3417143 93.9829026,13.4445714 93.8754036,13.536 L92.9363976,11.5467143 C93.0583539,11.4402857 93.2454394,11.3107143 93.4976541,11.158 C93.7494394,11.0058571 94.0547594,10.8572857 94.4139006,10.7122857 C94.7727555,10.5674286 95.1774155,10.4458571 95.628167,10.3464286 C96.0784891,10.2474286 96.5634513,10.1978571 97.0827674,10.1978571 C97.6935507,10.1978571 98.2512286,10.2777143 98.7553718,10.4378571 C99.2590855,10.5981429 99.6945209,10.8488571 100.061105,11.1918571 C100.42769,11.5342857 100.714258,11.9684286 100.920239,12.4935714 C101.126505,13.0187143 101.229567,13.6545714 101.229567,14.4005714 L101.229567,21.4824286 L98.6398569,21.4824286 L98.6398569,21.4824286 Z" id="Fill-6" fill="#D8242A"></path>
                    <path d="M110.006553,8.75742857 C109.914942,8.71157143 109.7353,8.64685714 109.468342,8.563 C109.200954,8.47914286 108.845821,8.43728571 108.402799,8.43728571 C108.005583,8.43728571 107.673638,8.55557143 107.406394,8.79185714 C107.139006,9.02814286 107.005455,9.41285714 107.005455,9.946 L107.005455,10.4721429 L109.388183,10.4721429 L109.388183,12.7585714 L107.028358,12.7585714 L107.028358,21.4928571 L104.187435,21.4928571 L104.187435,12.7585714 L102.721241,12.7585714 L102.721241,10.4721429 L104.187435,10.4721429 L104.187435,9.87771429 C104.187435,9.16157143 104.279332,8.55557143 104.46241,8.06014286 C104.645773,7.56471429 104.90128,7.16085714 105.229932,6.84828571 C105.558155,6.53585714 105.943777,6.30742857 106.386799,6.16242857 C106.829678,6.01728571 107.310775,5.94485714 107.830091,5.94485714 C108.517455,5.94485714 109.086298,6.01014286 109.53705,6.13914286 C109.987372,6.269 110.250895,6.35671429 110.327332,6.40242857 L110.006553,8.75742857" id="Fill-7" fill="#D8242A"></path>
                    <path d="M117.750203,15.9254286 C117.750203,15.4665714 117.696382,15.0308571 117.589742,14.6178571 C117.482815,14.2047143 117.322354,13.8492857 117.108644,13.5508571 C116.894505,13.2525714 116.635133,13.0154286 116.329527,12.8397143 C116.024064,12.6641429 115.665209,12.5755714 115.252819,12.5755714 C114.840716,12.5755714 114.481575,12.6641429 114.175968,12.8397143 C113.870648,13.0154286 113.610847,13.2525714 113.397423,13.5508571 C113.183284,13.8492857 113.022823,14.2047143 112.916183,14.6178571 C112.80897,15.0308571 112.755722,15.4665714 112.755722,15.9254286 C112.755722,16.3997143 112.80897,16.8395714 112.916183,17.2448571 C113.022823,17.6497143 113.179706,18.0057143 113.385829,18.3115714 C113.591809,18.6172857 113.851467,18.8585714 114.16466,19.0342857 C114.47771,19.2098571 114.840716,19.2978571 115.252819,19.2978571 C115.665209,19.2978571 116.024064,19.2098571 116.329527,19.0342857 C116.635133,18.8585714 116.894505,18.6172857 117.108644,18.3115714 C117.322354,18.0057143 117.482815,17.6497143 117.589742,17.2448571 C117.696382,16.8395714 117.750203,16.3997143 117.750203,15.9254286 Z M120.544891,15.9367143 C120.544891,16.6535714 120.434672,17.3584286 120.212803,18.0517143 C119.990934,18.7457143 119.663141,19.3664286 119.227992,19.9154286 C118.792414,20.464 118.242895,20.9062857 117.578433,21.2414286 C116.913686,21.5765714 116.138577,21.7442857 115.252819,21.7442857 C114.366918,21.7442857 113.591809,21.5765714 112.927491,21.2414286 C112.263173,20.9062857 111.713368,20.464 111.278076,19.9154286 C110.842783,19.3664286 110.513988,18.7457143 110.292978,18.0517143 C110.071252,17.3584286 109.960748,16.6535714 109.960748,15.9367143 C109.960748,15.2204286 110.071252,14.5191429 110.292978,13.8332857 C110.513988,13.1474286 110.842783,12.534 111.278076,11.9925714 C111.713368,11.4515714 112.263173,11.0171429 112.927491,10.6894286 C113.591809,10.3618571 114.366918,10.1978571 115.252819,10.1978571 C116.138577,10.1978571 116.909964,10.3618571 117.566839,10.6894286 C118.223427,11.0171429 118.773089,11.4515714 119.216541,11.9925714 C119.658847,12.534 119.990934,13.1474286 120.212803,13.8332857 C120.434672,14.5191429 120.544891,15.2204286 120.544891,15.9367143 L120.544891,15.9367143 Z" id="Fill-8" fill="#D8242A"></path>
                    <path d="M129.362386,21.4928571 L129.362386,15.205 C129.362386,14.367 129.187753,13.7191429 128.835626,13.2614286 C128.48493,12.8044286 127.995388,12.5755714 127.369861,12.5755714 C126.926123,12.5755714 126.518171,12.69 126.144573,12.9185714 C125.769543,13.1474286 125.446044,13.3987143 125.169781,13.6732857 L125.169781,21.4928571 L122.329861,21.4928571 L122.329861,10.4721429 L124.919284,10.4721429 L125.0567,11.3411429 C125.499006,10.9752857 125.998569,10.6931429 126.556819,10.495 C127.113638,10.297 127.674751,10.1978571 128.240159,10.1978571 C128.821312,10.1978571 129.355229,10.2857143 129.844771,10.4607143 C130.332883,10.6361429 130.752286,10.9142857 131.104414,11.2952857 C131.455109,11.6762857 131.725646,12.172 131.917455,12.7815714 C132.107833,13.3912857 132.203738,14.123 132.203738,14.9764286 L132.203738,21.4928571 L129.362386,21.4928571" id="Fill-9" fill="#D8242A"></path>
                    <path d="M141.042704,14.6564286 C141.011213,14.2754286 140.931054,13.9437143 140.800795,13.6617143 C140.669105,13.3797143 140.508787,13.1511429 140.316978,12.9758571 C140.125169,12.8008571 139.917614,12.6712857 139.694314,12.5871429 C139.472445,12.5035714 139.244851,12.4614286 139.015825,12.4614286 C138.523419,12.4614286 138.055348,12.6445714 137.610179,13.01 C137.16501,13.3761429 136.903062,13.9247143 136.827197,14.6564286 L141.042704,14.6564286 Z M136.758489,16.6912857 C136.82004,17.6211429 137.110616,18.2918571 137.63165,18.7034286 C138.152684,19.1148571 138.82831,19.3207143 139.655666,19.3207143 C140.039284,19.3207143 140.398569,19.2865714 140.736382,19.2175714 C141.074195,19.1492857 141.37336,19.0618571 141.633877,18.9548571 C141.894394,18.8484286 142.116262,18.7415714 142.300915,18.6348571 C142.484135,18.5281429 142.622982,18.4288571 142.714592,18.3372857 L143.470378,20.647 C143.363022,20.7231429 143.191252,20.8262857 142.95507,20.9555714 C142.718887,21.0851429 142.424016,21.207 142.07332,21.3212857 C141.721193,21.4358571 141.308946,21.5344286 140.836581,21.6185714 C140.362783,21.702 139.843181,21.7442857 139.277773,21.7442857 C138.560636,21.7442857 137.876421,21.6301429 137.227992,21.4012857 C136.578131,21.1727143 136.009861,20.8181429 135.52175,20.338 C135.032207,19.858 134.642863,19.2598571 134.352286,18.5432857 C134.06171,17.827 133.917137,16.9735714 133.917137,15.9824286 C133.917137,15.0528571 134.050258,14.2297143 134.317932,13.5131429 C134.585606,12.7967143 134.952048,12.1948571 135.417256,11.7068571 C135.883897,11.2192857 136.426402,10.846 137.044771,10.5865714 C137.663141,10.3277143 138.323022,10.1978571 139.025845,10.1978571 C139.728668,10.1978571 140.378529,10.3121429 140.973996,10.5407143 C141.569463,10.7692857 142.084771,11.1238571 142.51992,11.6037143 C142.95507,12.084 143.298608,12.7054286 143.550537,13.4674286 C143.802465,14.2297143 143.928429,15.1367143 143.928429,16.1881429 L143.928429,16.6912857 L136.758489,16.6912857 L136.758489,16.6912857 Z" id="Fill-10" fill="#D8242A"></path>
                    <path d="M64.2282942,41.6134286 C64.9919523,41.295 65.6519761,40.6918571 66.2085089,39.8035714 C66.7641829,38.9161429 67.042163,37.8357143 67.042163,36.5622857 C67.042163,35.6597143 66.8898608,34.7752857 66.5861153,33.9091429 C66.2823698,33.0437143 65.7631968,32.344 65.0293121,31.8112857 C64.2952843,31.2787143 63.4457416,31.012 62.4819722,31.012 C62.0959205,31.012 61.6992763,31.056 61.2920398,31.145 C60.8839443,31.2338571 60.4652565,31.382 60.0351173,31.5894286 L60.0351173,27.0375714 L58.4111809,27.0375714 L58.4111809,41.2912857 C58.8261471,41.4841429 59.3377336,41.6651429 59.9459404,41.8352857 C60.5542903,42.0054286 61.2432286,42.0905714 62.015332,42.0905714 C62.7270298,42.0905714 63.4640636,41.9317143 64.2282942,41.6134286 L64.2282942,41.6134286 Z M60.8800795,40.6257143 C60.5687475,40.5512857 60.2870457,40.4554286 60.0351173,40.337 L60.0351173,33.0771429 C60.4058529,32.8257143 60.7727237,32.6515714 61.1358728,32.5551429 C61.4990219,32.4587143 61.8515785,32.4107143 62.1926839,32.4107143 C62.6524533,32.4107143 63.1342664,32.5407143 63.6391252,32.799 C64.1431252,33.0581429 64.5732644,33.5064286 64.928827,34.1422857 C65.2849622,34.779 65.463173,35.5707143 65.463173,36.5182857 C65.463173,37.806 65.1365249,38.831 64.4842306,39.5931429 C63.8316501,40.3551429 62.9341551,40.7365714 61.792175,40.7365714 C61.4953002,40.7365714 61.1915547,40.6994286 60.8800795,40.6257143 L60.8800795,40.6257143 Z M74.7617654,41.8018571 C75.235992,41.6095714 75.6807316,41.3504286 76.0962704,41.0252857 L76.2073479,41.8467143 L77.7202068,41.8467143 L77.7202068,31.2558571 L76.0521829,31.2558571 L76.0521829,39.5377143 C75.7255348,39.8635714 75.3068469,40.141 74.7952604,40.3704286 C74.2828151,40.5998571 73.767507,40.7145714 73.2490497,40.7145714 C72.448175,40.7145714 71.8436899,40.5032857 71.4355944,40.0817143 C71.027499,39.66 70.8243817,38.9822857 70.8243817,38.05 L70.8243817,31.2558571 L69.1995865,31.2558571 L69.1995865,37.961 C69.1995865,39.3522857 69.4966044,40.3887143 70.0896382,41.0694286 C70.682672,41.7501429 71.6473002,42.0905714 72.9818052,42.0905714 C73.6936461,42.0905714 74.2868231,41.994 74.7617654,41.8018571 L74.7617654,41.8018571 Z M85.0058052,41.8018571 C85.5616223,41.6095714 86.0291213,41.273 86.4074433,40.7921429 C86.7850497,40.3111429 86.9745686,39.6925714 86.9745686,38.9381429 C86.9745686,38.0795714 86.7256461,37.4101429 86.2292326,36.9285714 C85.7322465,36.4484286 85.0165408,36.0372857 84.0824016,35.6968571 C82.4510219,35.105 81.6355467,34.4682857 81.6355467,33.7875714 C81.6355467,33.432 81.7725328,33.1067143 82.0466481,32.8104286 C82.3207634,32.5141429 82.7699404,32.366 83.3927475,32.366 C83.9415507,32.366 84.4379642,32.4624286 84.8832763,32.6547143 C85.3278728,32.8477143 85.7283817,33.1135714 86.0845169,33.454 L86.7744573,32.233 C86.4181789,31.8925714 85.9582664,31.6001429 85.3948628,31.3561429 C84.8307435,31.1115714 84.1562624,30.99 83.3705606,30.99 C82.3770179,30.99 81.580008,31.2597143 80.9792445,31.7998571 C80.3786243,32.3408571 80.0780278,33.0398571 80.0780278,33.8984286 C80.0780278,34.6385714 80.2858688,35.2341429 80.7006918,35.6855714 C81.1156581,36.1368571 81.8282147,36.5478571 82.8369304,36.9178571 C84.5864016,37.5987143 85.4618529,38.309 85.4618529,39.0491429 C85.4618529,39.6265714 85.2867913,40.0482857 84.9389583,40.3148571 C84.5901233,40.5808571 84.074672,40.7145714 83.3927475,40.7145714 C82.724994,40.7145714 82.1432684,40.5847143 81.6462823,40.3255714 C81.1491531,40.0672857 80.7380517,39.7967143 80.4114036,39.5155714 L79.8336859,40.8915714 C79.9516342,41.0101429 80.1746481,41.1658571 80.5005805,41.3581429 C80.8270855,41.5502857 81.2351809,41.7212857 81.7245805,41.8687143 C82.2134076,42.0168571 82.7699404,42.0905714 83.3927475,42.0905714 C83.9119205,42.0905714 84.4494155,41.994 85.0058052,41.8018571 L85.0058052,41.8018571 Z M88.8876501,41.8458571 L90.5336302,41.8458571 L90.5336302,31.2558571 L88.8876501,31.2558571 L88.8876501,41.8458571 Z M90.4667833,29.114 C90.6746243,28.9287143 90.7779722,28.659 90.7779722,28.3032857 C90.7779722,27.963 90.6746243,27.6962857 90.4667833,27.504 C90.2589423,27.3118571 90.0068708,27.2152857 89.7107117,27.2152857 C89.413837,27.2152857 89.1580437,27.3118571 88.9424732,27.504 C88.7279046,27.6962857 88.6205487,27.963 88.6205487,28.3032857 C88.6205487,28.659 88.7279046,28.9287143 88.9424732,29.114 C89.1580437,29.2987143 89.413837,29.3914286 89.7107117,29.3914286 C90.0068708,29.3914286 90.2589423,29.2987143 90.4667833,29.114 L90.4667833,29.114 Z M94.8487634,41.8467143 L94.8487634,33.5428571 C95.219499,33.2472857 95.6572247,32.9768571 96.1612247,32.733 C96.6652247,32.4882857 97.1919841,32.366 97.7409304,32.366 C98.6012087,32.366 99.2201511,32.6181429 99.5986163,33.1211429 C99.9769384,33.6241429 100.165598,34.3201429 100.165598,35.2082857 L100.165598,41.8467143 L101.789535,41.8467143 L101.789535,35.2524286 C101.789535,33.8315714 101.507833,32.7655714 100.944573,32.0552857 C100.38031,31.3447143 99.4022266,30.99 98.008175,30.99 C97.399825,30.99 96.8212485,31.0932857 96.2723022,31.3007143 C95.723499,31.5081429 95.2415427,31.7748571 94.8267197,32.1 L94.715499,31.2558571 L93.224827,31.2558571 L93.224827,41.8467143 L94.8487634,41.8467143 Z M110.943412,41.7578571 C111.618751,41.5358571 112.118887,41.2615714 112.445678,40.9364286 L112.022982,39.5377143 C111.622616,39.878 111.169575,40.1591429 110.665575,40.381 C110.161718,40.6028571 109.583141,40.7145714 108.930561,40.7145714 C107.832811,40.7145714 106.995292,40.337 106.416716,39.5817143 C105.838139,38.8272857 105.548851,37.7832857 105.548851,36.4514286 L112.890131,36.4514286 C112.890131,35.652 112.760016,34.8162857 112.501074,33.9424286 C112.241559,33.0695714 111.763467,32.3591429 111.066083,31.8112857 C110.3687,31.2635714 109.493964,30.99 108.441161,30.99 C107.743777,30.99 107.047252,31.1601429 106.349869,31.5005714 C105.652485,31.841 105.078489,32.4548571 104.626306,33.343 C104.173264,34.2312857 103.947101,35.282 103.947101,36.4961429 C103.947101,38.3167143 104.392557,39.7041429 105.282465,40.6582857 C106.172374,41.6134286 107.372899,42.0905714 108.885614,42.0905714 C109.583141,42.0905714 110.269074,41.9795714 110.943412,41.7578571 L110.943412,41.7578571 Z M106.706147,32.9768571 C107.19569,32.5551429 107.773408,32.344 108.441161,32.344 C108.738036,32.344 109.093598,32.4298571 109.50928,32.5992857 C109.924103,32.7694286 110.276517,33.0771429 110.565948,33.5208571 C110.855093,33.9645714 111.01441,34.4902857 111.04404,35.0974286 L105.705018,35.0974286 C105.883085,34.1058571 106.216604,33.3985714 106.706147,32.9768571 L106.706147,32.9768571 Z M119.552922,41.8018571 C120.10831,41.6095714 120.576382,41.273 120.954274,40.7921429 C121.332167,40.3111429 121.521113,39.6925714 121.521113,38.9381429 C121.521113,38.0795714 121.273479,37.4101429 120.776779,36.9285714 C120.28008,36.4484286 119.564374,36.0372857 118.629662,35.6968571 C116.998139,35.105 116.182807,34.4682857 116.182807,33.7875714 C116.182807,33.432 116.319078,33.1067143 116.593909,32.8104286 C116.868024,32.5141429 117.317201,32.366 117.939865,32.366 C118.488811,32.366 118.985082,32.4624286 119.429821,32.6547143 C119.87499,32.8477143 120.275785,33.1135714 120.632207,33.454 L121.322147,32.233 C120.965726,31.8925714 120.504811,31.6001429 119.942266,31.3561429 C119.37829,31.1115714 118.70338,30.99 117.917821,30.99 C116.923563,30.99 116.127125,31.2597143 115.526505,31.7998571 C114.925885,32.3408571 114.625145,33.0398571 114.625145,33.8984286 C114.625145,34.6385714 114.832986,35.2341429 115.247952,35.6855714 C115.662775,36.1368571 116.375475,36.5478571 117.384191,36.9178571 C119.133519,37.5987143 120.009543,38.309 120.009543,39.0491429 C120.009543,39.6265714 119.833479,40.0482857 119.485646,40.3148571 C119.137813,40.5808571 118.622076,40.7145714 117.939865,40.7145714 C117.272111,40.7145714 116.690672,40.5847143 116.1934,40.3255714 C115.696414,40.0672857 115.285169,39.7967143 114.958521,39.5155714 L114.380803,40.8915714 C114.498751,41.0101429 114.721909,41.1658571 115.047698,41.3581429 C115.374346,41.5502857 115.782298,41.7212857 116.271125,41.8687143 C116.760668,42.0168571 117.317201,42.0905714 117.939865,42.0905714 C118.459038,42.0905714 118.996533,41.994 119.552922,41.8018571 L119.552922,41.8018571 Z M128.02831,41.8018571 C128.585129,41.6095714 129.051769,41.273 129.429662,40.7921429 C129.807555,40.3111429 129.997932,39.6925714 129.997932,38.9381429 C129.997932,38.0795714 129.748867,37.4101429 129.252167,36.9285714 C128.755467,36.4484286 128.039761,36.0372857 127.10505,35.6968571 C125.473241,35.105 124.658767,34.4682857 124.658767,33.7875714 C124.658767,33.432 124.794751,33.1067143 125.069583,32.8104286 C125.342982,32.5141429 125.792445,32.366 126.415109,32.366 C126.96334,32.366 127.46004,32.4624286 127.90664,32.6547143 C128.350378,32.8477143 128.751173,33.1135714 129.107594,33.454 L129.797535,32.233 C129.441113,31.8925714 128.98163,31.6001429 128.417654,31.3561429 C127.853678,31.1115714 127.179483,30.99 126.393638,30.99 C125.398807,30.99 124.601511,31.2597143 124.00175,31.7998571 C123.401988,32.3408571 123.101392,33.0398571 123.101392,33.8984286 C123.101392,34.6385714 123.308946,35.2341429 123.724056,35.6855714 C124.137734,36.1368571 124.850577,36.5478571 125.85829,36.9178571 C127.608907,37.5987143 128.48493,38.309 128.48493,39.0491429 C128.48493,39.6265714 128.310298,40.0482857 127.961034,40.3148571 C127.613201,40.5808571 127.097893,40.7145714 126.415109,40.7145714 C125.748072,40.7145714 125.165487,40.5847143 124.668787,40.3255714 C124.172087,40.0672857 123.761272,39.7967143 123.434911,39.5155714 L122.85662,40.8915714 C122.973996,41.0101429 123.197296,41.1658571 123.523658,41.3581429 C123.848588,41.5502857 124.257972,41.7212857 124.746083,41.8687143 C125.235626,42.0168571 125.792445,42.0905714 126.415109,42.0905714 C126.934712,42.0905714 127.472922,41.994 128.02831,41.8018571 L128.02831,41.8018571 Z" id="Fill-11" fill="#D8242A"></path>
                </g>
            </g>
        </g>
    </g>
</svg>